<mxfile modified="2023-12-16T08:45:41.945Z" host="app.diagrams.net" agent="Mozilla/5.0 (Windows NT 10.0; Win64; x64) AppleWebKit/537.36 (KHTML, like Gecko) Chrome/120.0.0.0 Safari/537.36" etag="VDQeD3KuBxEj1S_ulA__" version="22.1.11" type="device">
  <diagram id="3cyAlscHwY5eOOUVbYXC" name="Page-2">
    <mxGraphModel dx="820" dy="353" grid="0" gridSize="10" guides="1" tooltips="1" connect="1" arrows="1" fold="1" page="1" pageScale="1" pageWidth="1169" pageHeight="827" background="#ffffff" math="0" shadow="0">
      <root>
        <mxCell id="0" />
        <mxCell id="1" parent="0" />
        <mxCell id="1RaT8kTlaAWq3hZoWo9T-6" value="" style="edgeStyle=none;rounded=1;orthogonalLoop=1;jettySize=auto;html=1;" parent="1" source="d-n5HlGapCBckcr2cciH-1" target="1RaT8kTlaAWq3hZoWo9T-5" edge="1">
          <mxGeometry relative="1" as="geometry" />
        </mxCell>
        <mxCell id="d-n5HlGapCBckcr2cciH-1" value="" style="outlineConnect=0;dashed=0;verticalLabelPosition=bottom;verticalAlign=top;align=center;html=1;shape=mxgraph.aws3.ec2;fillColor=#F58534;gradientColor=none;rounded=1;" parent="1" vertex="1">
          <mxGeometry x="50" y="140" width="60" height="43" as="geometry" />
        </mxCell>
        <mxCell id="6fr6ILwoE9iUsMQGFno_-1" value="" style="shape=image;verticalLabelPosition=bottom;labelBackgroundColor=default;verticalAlign=top;aspect=fixed;imageAspect=0;image=data:image/png,iVBORw0KGgoAAAANSUhEUgAAAO0AAADUCAMAAABH5lTYAAAB0VBMVEX////u7u7t7e0Ax9QArUbkOSEBfO739/cR4e7/dVcE1lkMtv/29vb6+vr8/Pzz8/NKSEgMuf8AqkUAeO4Aqz8AvP8Adu0AqjkAcu3jJAAAydbkNRv/c1QAtP8AdO728O/tKwDzXEEAdfYS5PYE1FwApzHkLAn1wbz52tfrd2v75OL/bUz3ZUnnNhgEivIO3OkE2VEDsaIDxVHmSjfpn5fX6utFztlm09yE3uX/akfB5ejz/f5OoNrpRSzigmv38e30eV0GkvQHl/YJo/lMQkEDqLEDtJwQ3eMDobsJw5bY4u4LyKYMz7oCvU6LufWd2rCryO5Jum2G0J3zsKrpr6vs4uHoX0/oa13nh37olY30vLb4zcnnWEeW4uiv6O3pZ1j+tqj5pJT/nIj+j3iEhq7OS0ayZnntemDHUlV2rrB/ibWrmpGknphilsnOi3tatbpeyP++koXAWmOL1/+i3f+RfJ/A6f/Xh3WJp6a2YnJEird0PzRnQ0DEX0w0RUedW05NQTIrZKspiZEcb85lpPI9b0pMPkdDYmXK3/s4fE2dwvYCmMkDxX1x6PEClcwEx3kBjdcO1cy+88zS9t7F48862nFb4Id55px2x49dv3uw2LxU/jCPAAASGklEQVR4nO2di3fUxhXGpdXi9dqWhNfG6+cKDH7HhhaWh4Wz2ISQOClgg8PbNGneTZOmbUiTvlNKXQIlLS4B/7WdGWlXI2lmNC9tKOWenp4vPtjen++9cz9JI8kwYJQKpmkW+KTNkA5dOnzSpkuDIUt80nhB+4L2uaKFwSdtPhkSKMgQhkuW+KRRQtED4/mXAXlP9EdISTMhXRXp0qWpInsSskCRJqzqEDGSJo80XT7pikqTT/YUeGQB/+oL2ueXlta3puva0ccOlrRnvG9bXPS+RUGYNc5FGJcuXZq6fn0axAYIJ/glIILf8UxOINtfJHw1w13MDE3CGMJiftfS4RtvXZ65cvXIpanpWc9wILgbIprPhrvw6pZ1VNhLLY3sSscIjPn55l9h/vCtmasXAbiDMm42M/4D0kJYy/JFaaeGCLRpeoAOsCeXbl05MjXNMpHtoQ1gM2lTfcuHi2FD6sOXr16bdXyQ5h+mb0NYSEvuW6rR8oVwm9CI+crFac93bLvdxrAUwlq+uHN0JXADZpDn+RtXpzZcH/2wtjlHfziklXGO/nVJXIQMsnzj6jT6VG1yF4UmrFWQ8lLXh0grsxDxzDXPd9tCG8Faks5RERfE/NDQrUsbbv60GKzliTrHUM4q46IUX54Kfm6OfYvBWl6Gc0zN21C605PquDDD81c3/PzmrW0cxWAt6fNSro7swpgcmpkO1mj9tKYdg5WnLWgpZhTzQ29dz4k2Djuscs5xdl4T7q6RoVvTedDGYbNp084Rk7MjunAB74xnCDhHDhNpeglYRCvoHDHpbOzShgvq+Yhd0ukcS0lY66gjfc4RLfMbxANAyRi6MWtonEDHkrDWUeoEYruLpix5GrMLyvmiNnfhpWGtY1R3wUfbY3iHNeLuGrrs6KElwWqgNbyleY2480sbdPfMT0uEZdBy9W0gD+vEHRmadpX7lgwLaNnO0YyGLFW6hRt6ca+H49SM5q1pc8nQQBnHibDW8fAfRPPWFL+iaTpacXcBXCV34VBgrZuart/emNSMq0Dr0WCtTV1Xq9/SiQuK2ZWmpcNm0zKdIy5vacWdv+7KOUcWLKKlO0fk5HpcO5IlmrSdy1pxl6Z8YOvs5q9AsoRLlyh77Jt0WGvRtqN/i0lO54hdrTZLM1p798SU1ATaZMBai6aac4zJywqnIlOx78Q1cXfhMWGtutbrtzM6ccsnpnxB2gxYzbRacfeVT1zzhWizYBm0on0bmL0rGnHL5RM/dUXsYhasRbCLKedoCsgefbgjL0FcMGvMwA0aWTITdtiI7yiIZEjL7S5aG+D04R4uI1xOd+EsZsHCi9Xad/7pwy0HuFy0XjZsLrTGVU24I6MBrstBywMLD4Fy2NWpC3dfGeG+7bMtM7SLPLAsWhtGCW0XEZXGET24S4i2PPeOD8xp9CuS0nZLXLDWTQf8W+zbIik5gQLpX9SCG9KW597OmED1bFIYm15O+xy14I6Um7jvMO0iJyywyXnt/NOBGyxTYTFTab36cDYoinputFpwXypHuC6FljuzcB+CZueISdm9KFhuI9ry3M/A5yPZRX5Yi2QXeZ2jQ5c2VDI7jei0AJdoF33eMg7MhW7niEll3H3lBG5y3jo+f2YDWv3uoiVVcWO0ENeM05oCmQ3MRa53yKhsrErRot6N51YEFp5NzpdWcadRgrY8d6qA04rBwjOOeThH3EQq4SZpy6OnvJ6m7+txxWCtesIu6nKOuImclseNrclNXLs1gQRhrTpjAqm6i5ZUwE3TlkfLdk/wc1P7DLLCa43QPO8ZkcaNnGO8mNHPFYY92h5aY1Zy2xyRFuBumKm9QRxxjEWrqW+RnB0ZGdm7dxL8TwybBAuLeUMC1rrpMfrWAdG0i1CHxlBUIhPpzk7Ov3uyu/vkF+/tFbjSu0SmBbjkS+/sWEQY6JOVEFwgA1AUuu6/NTbGeru7u3t795x8n5+XRlse/UB0PQZRj7oy37uNTX9PdxiA98O9nLSpcduKuY/Ecdt3b3XvWHd3xPsxX3oJ47aV3J8L0x512kRb6O2OxZ7u97j8M3FJlqU9xrq/XJNzhNJMwML+fZ+nmqmw5dFPhGk37aRdzME5ArlnLEkL0vtFNi51kZLq23opNXYwqc1dkGAB7seZuPRFqjxqCdO2527jXxJhAe4vMnBZi9Sn4otUW2jJmeXBJfvGoJA/E6Y9LndvtVDfMmAzceltO/qy+LTdZD8TQdgjEqRBK2Oe3mV4C/HUWnUX2UXMOeIyGEOK85YNy16Z6W07+rk47LCX+3NqsmABLmPuUmFPiS/IcK9uvrSNbFjgMz6kmUhq28rUMby8lystFywI2m0YtLadE7dRFrzgxaYNlhvkrsjSZkpe2N6T5FqmzR+JUWvBszRuuEoFdjEpVSfQr/lgQeu+S8SlFLLM8LGCE+c5PpWHGxbg/oq0G5RcyFIrlBUcyefmpRoCsCAItwPSTsDJoFrw3sz8aAVhewmeiljIspkNrnfl5BwFYeHUTdUyqZBHP5CEtRbJzYrJaPU1xaRIzzYjdXsccYGSQwWBrb4mUQZjSGbe/kYcNlXLhEKe+3RYMrPWcY84ZHW4CwlYuC7HLBXBI8+Jn4lqRd3MibbRgu3FI5s3ntxUFcucUm3GMP/zHMVoA1iAN3b69Mry8gKM5eWV06fHxrqZzPGjoeQaJb8+wbjJQZvpHAkSwkLShY6+vr6OKPrgfy6snB6jp7kXu7E1OWznJA7xsPApdlHVOd4e6x1b6YiBdsSgATIlyfhCFV+jRkcVqtjKujFT3jne7h5b7qChtpA7FmCO07XcOvaLr1FzX6pUsZW4dUKbl2rcHlvOQm3mGKQ4CYwdDMUS+1vpwRMEvEitn7Zxe4WPtZniJPCer+aTa9To3KeKiU1uXNXkHBu3F0RgCcCt5EZFfOojxcSixyAwNzemnCPPmmzcFmUNgBdOd/cmknu4ldhPlFlBaukLMb4m8w3ZptwakIFFCV6OErw3Gj+jc58rFzGIY4whK+0uVmVhwwQHvHu+mpyfXwpYv/xMQ2LZF+QlaRtKsB1hBwPar3+3+/d/gKwvy5xXJMRx1iVq2dyqsQa8y2N7vv7z7t27//in0Q/UF6cwTBainHNsCK/GZOBlCAtCG6u16LGWJjnneE6xjpvxl1cQ7Cvf6II9njF2MMntLrYG9cBqpx029D8b29fE2lH7a0h7RhOtnwPtHS1N21HrOHPgb3ch7N87D2rBXSQhqjnHkp46rtXOdB3q6vrH3bt3vznY2amD92Z2s2KSb022dbD21V47AFi7un5cqfS/vr+zUwPv8eyFWNw53qups45/+x/E2tVVBFHtbMZBFViOISvsLnz14TP+3f2QFaQW0obJVUow/U5bFVrlUVvrePVQExaltljsP9uJhRQw484fBVrl1I5/e6DF2nWggmjx5CJeUeDhB3yIZOdIvwaimNrawv2ItavrJ0Fui9VYcoWBDz6wGddAKFdGsieQ6tHA+GuHcNgwtaCUE8kVAj7Y+YD6Lgol59hQWpAHOmKJBalt0hYn/pWmDXo4g3gYzOoHTEsh76UaSon9Z1cctqvYiv77hORGOaYgDx+EvuQBG1GeVsVGjf8owRqMn2Zy36TShsiAOYIGGpGGsDK0mX3bkHfIfR0Pk7CtNQpFhU1LD/TJJPoWbsluekRMOi3pSi/Ite8OpGAPVHDa5BTijXA/OfyQZOm0pI3JYBM+82TUBVna8W9TrPFChrWcmkJ8mUUfMof38TWWZWHPEGC7ivHofyiRXCM/2lXJ8TP+Kgk2Xsiwlt8QxjXyo23ckytkMmx8jZKrZUeFNvCIcHkmbraWLOTx14mwyUKWqGU/cIMwWPuuyTJrAvlSw5aS2XQhC6/LPvaeQf3O8YJM26Y9BbWQi3QDSYTN9318Mtai9hoFllDIqJi5W9fP+e2DEpnt+44GSypkkdaF51LzeftgIKU88gEKLLmQ+VvXTzSrpHOk3olYkjiOH79PSy2lkGHrvsmBW/eQBWTclJgpgzFEm7eNFWFYetPSCjlYqTJx/dSQ1ewuTFPCWlBhkx45XsxnM3D9NKJu2i3h+VOjTFpW2wZLFXthrhMQNdNK2MYFOiy9bRFthYVbJyFKOkfsCRBG5BwBrfC0rdF8Bbtts3CxpzrY2AMeuGTsCRDMCbQgmtoadfqw2xbhFmm4ix5x7Oh1jiVhk0w3FlltG+CSV+bFtrzJuSS8SA3Qx09G2wZRJc3dxfa8t9oWXqRYbctDW5xIu6pNQyMto2+ddi5Szew+TAzeTXqz6nWOjvAi1ceo5KxFKoz+6hsxWHW7yOkcXYmjPUlvEUtv5c39YX73b7KGrF53sSp+AFQjnVUVpIW8b5zt3L9//9n7a9ijHXOmlTiTXFv9t9iRPI23Wnl4/2G1v3+tbbTnhCt5cMswaLh8bRtFfz/6/7WCftpoWcek+JK8Bb/tERlXlLYJXSm4lFcXlBKS8qhZTDImUEN0SR7casDv84i4fAOIiOvom0B0d9EQXKRAGaM/o0vMrjQtxO3J30sJLsmwjENaEi7nuCXjmvnTirnk8S0joiXgKtDC3tVES+1bsUuZgxfQHwn+BHTz9SOdtODoqE58Prg+5+iInG8cvGC3/Bn6CT3J7CrRQlynpM85tv4IkRQYQCCzwXEE/D47+AkJXDVagOvT3vYLo8Qnm7QEd8F/BxuADe64DmkD+UgnLcRl2Cp1L8U9bmHPEmgNXyctLGYvR1re1A7eM8i0ho+dpZKftxHvtpebc+zhHLeD5xAi+jYnIXFcddpiddtNOcdsu8jjHHnH7eC5RmvspB/bg+FqoC1WH+XlHPloQWZbloL0lMcIVwNssTjxCCtDjV6Kz1zAMmbSRrgCR/OMqG57udDymAvUs2xawwnvJlBelHFcWVpa3zY4juVrd4jNmpQBroZFGcXEjifft6VS9ApWXHJYqdodO/VtJGkHuHpgIa7D+m0sicCJzjHTSoHMRt9mJ50j9treMLt6Ghfh6neOWVYKwKYe7ejQJMTV1LgI19PtpTJgB+4QHmRJpTUeH9JXyiFuG2khrAgtxNVWygD3vKfoHAsx6TPbdmAFwZgZiJh0Hh/StSoHuKGJRDDYneRMSb0thvlEgIEV18wYO2n5+JDG5AJcnc6RtS8ZZDbDUsRk87XUjw9pTC7AtblMJJeXYtjkvmUORAKt8VjfslwMelcXLX3zKoSVozW+r2qkLU6s85hIHufYoNL2LYg0a0J+P6EV94mnxzk6NNq+BbMk5dqQdJ5oxa0+MfQ4R8qei76FHjNhFzFJdo4xua4bV4tzJNP2LThO0lJgkjVvm1I3buYjK3m8FPGAr2/BZ75DhofWOK8fV52WmFuf/cYcLlpjRy/uU1edlnh465MQGbQOURrbwXV3jbi8tLQJRKJdbUiNHUy6gfTXdA7e6lNV50ii9Ru4/ZBxF5E8P6ExvdWnjDORPF4qvce+b5X9xhwxWqOuM73VNVeNNnlHG4DVSmuUdjR2b3WNj5bWt4kTNQOr1F6U6FskvcJ6VRsv2lgVckk4xzhtbcuWt4tU6bjr2tq3f61kyzvHBGyDbhfJkuYc49IorPdr6t/+NQXnGIdl2UVM8rkLXJpe4XxFT4LRtjlJdxGD5X37oDgtkJ63/aSqo4PR1hs52sg4ws2LedIiufNUAzDE5aJN9W0Nh8X/gda+xaSvARjiMvuWNoGaV+YHLzRaX9U7gQhye70yoUTcX/Sl3j442IKNWwpt7oLiOeo7Tyogx7LIcB+ZuJcKaQcvsN4hkwOta7qeV99eX6tOyCEDXFeYtjAYwradtinrO+tPQZaF8xzgUmjJfRvQor1BJv7VHPs2fQXa88zC9s75J2tFkGgAzUvdv23S+pZitGAlA9gc7KKYhBsuHdvc3gGZXqtUJyaCbDPB+yu0y9kInDSBBgYG7zVSXzXym0ApmdrR6LluYXt7+/x5AL5WqYCMB/AIPwpQy8LOcfXcBSP9VSMvd9GUNl0GF+sCe+15rllwfR/A7+zsAP71JyCegr8C+DusbcvcMyL+3ur8aXHwQJqu67nNvwGIdr23us20CtfmSR1Klj9c3zIk77UCpPnfRdHGCSQitT8JPC1zcxep+yXacbfxC9r/cVq+Zm3TEZ9a33K0sLCh63kWJednR+D/PxMohGkV+HPtLv4LKCjG4EVWUAMAAAAASUVORK5CYII=;rounded=1;" parent="1" vertex="1">
          <mxGeometry x="52.06" y="40" width="55.89" height="50" as="geometry" />
        </mxCell>
        <mxCell id="6fr6ILwoE9iUsMQGFno_-5" value="" style="endArrow=classic;startArrow=classic;html=1;rounded=1;exitX=0.5;exitY=0;exitDx=0;exitDy=0;exitPerimeter=0;" parent="1" source="d-n5HlGapCBckcr2cciH-1" target="6fr6ILwoE9iUsMQGFno_-1" edge="1">
          <mxGeometry width="50" height="50" relative="1" as="geometry">
            <mxPoint x="79.58" y="120" as="sourcePoint" />
            <mxPoint x="79.57999999999994" y="50" as="targetPoint" />
          </mxGeometry>
        </mxCell>
        <mxCell id="O84FAi003L7rvpNRJB2_-3" value="" style="edgeStyle=orthogonalEdgeStyle;rounded=1;orthogonalLoop=1;jettySize=auto;html=1;" edge="1" parent="1" source="1RaT8kTlaAWq3hZoWo9T-5" target="O84FAi003L7rvpNRJB2_-2">
          <mxGeometry relative="1" as="geometry" />
        </mxCell>
        <mxCell id="1RaT8kTlaAWq3hZoWo9T-5" value="CREATE EMR&amp;nbsp;&lt;br&gt;CLUSTER" style="rounded=1;whiteSpace=wrap;html=1;verticalAlign=top;fillColor=#F58534;dashed=0;gradientColor=none;" parent="1" vertex="1">
          <mxGeometry x="163.75" y="144.5" width="100" height="38.5" as="geometry" />
        </mxCell>
        <mxCell id="O84FAi003L7rvpNRJB2_-1" value="" style="outlineConnect=0;dashed=0;verticalLabelPosition=bottom;verticalAlign=top;align=center;html=1;shape=mxgraph.aws3.emr;fillColor=#F58534;gradientColor=none;rounded=1;" vertex="1" parent="1">
          <mxGeometry x="180" y="190" width="60" height="50" as="geometry" />
        </mxCell>
        <mxCell id="O84FAi003L7rvpNRJB2_-5" value="" style="edgeStyle=orthogonalEdgeStyle;rounded=1;orthogonalLoop=1;jettySize=auto;html=1;" edge="1" parent="1" source="O84FAi003L7rvpNRJB2_-2" target="O84FAi003L7rvpNRJB2_-4">
          <mxGeometry relative="1" as="geometry" />
        </mxCell>
        <mxCell id="O84FAi003L7rvpNRJB2_-2" value="&lt;br&gt;&lt;br&gt;CHECK" style="rhombus;whiteSpace=wrap;html=1;verticalAlign=top;fillColor=#F58534;rounded=1;dashed=0;gradientColor=none;" vertex="1" parent="1">
          <mxGeometry x="280" y="123.75" width="80" height="80" as="geometry" />
        </mxCell>
        <mxCell id="O84FAi003L7rvpNRJB2_-8" value="" style="edgeStyle=orthogonalEdgeStyle;rounded=1;orthogonalLoop=1;jettySize=auto;html=1;" edge="1" parent="1" source="O84FAi003L7rvpNRJB2_-4" target="O84FAi003L7rvpNRJB2_-7">
          <mxGeometry relative="1" as="geometry" />
        </mxCell>
        <mxCell id="O84FAi003L7rvpNRJB2_-4" value="EXCTRACTION&lt;br&gt;SCRIPT" style="whiteSpace=wrap;html=1;verticalAlign=top;fillColor=#F58534;rounded=1;dashed=0;gradientColor=none;" vertex="1" parent="1">
          <mxGeometry x="390" y="141.88" width="120" height="43.75" as="geometry" />
        </mxCell>
        <mxCell id="O84FAi003L7rvpNRJB2_-6" value="" style="sketch=0;aspect=fixed;pointerEvents=1;shadow=0;dashed=0;html=1;strokeColor=none;labelPosition=center;verticalLabelPosition=bottom;verticalAlign=top;align=center;fillColor=#00188D;shape=mxgraph.azure.script_file;rounded=1;" vertex="1" parent="1">
          <mxGeometry x="426.5" y="190" width="47" height="50" as="geometry" />
        </mxCell>
        <mxCell id="O84FAi003L7rvpNRJB2_-10" value="" style="edgeStyle=orthogonalEdgeStyle;rounded=1;orthogonalLoop=1;jettySize=auto;html=1;" edge="1" parent="1" source="O84FAi003L7rvpNRJB2_-7" target="O84FAi003L7rvpNRJB2_-9">
          <mxGeometry relative="1" as="geometry" />
        </mxCell>
        <mxCell id="O84FAi003L7rvpNRJB2_-7" value="&lt;br&gt;&lt;br&gt;CHECK" style="rhombus;whiteSpace=wrap;html=1;verticalAlign=top;fillColor=#F58534;rounded=1;dashed=0;gradientColor=none;" vertex="1" parent="1">
          <mxGeometry x="545" y="123.755" width="80" height="80" as="geometry" />
        </mxCell>
        <mxCell id="cxVYeyNe83v4ehQ38KOi-4" value="" style="edgeStyle=orthogonalEdgeStyle;rounded=1;orthogonalLoop=1;jettySize=auto;html=1;" edge="1" parent="1" source="O84FAi003L7rvpNRJB2_-9" target="cxVYeyNe83v4ehQ38KOi-3">
          <mxGeometry relative="1" as="geometry" />
        </mxCell>
        <mxCell id="O84FAi003L7rvpNRJB2_-9" value="TRANSFORMATION&lt;br&gt;&amp;nbsp;SCRIPT" style="whiteSpace=wrap;html=1;verticalAlign=top;fillColor=#F58534;rounded=1;dashed=0;gradientColor=none;" vertex="1" parent="1">
          <mxGeometry x="685" y="138.75" width="120" height="50" as="geometry" />
        </mxCell>
        <mxCell id="cxVYeyNe83v4ehQ38KOi-1" value="" style="shape=image;imageAspect=0;aspect=fixed;verticalLabelPosition=bottom;verticalAlign=top;image=https://www.edureka.co/blog/wp-content/uploads/2018/07/PySpark-logo-1.jpeg;rounded=1;" vertex="1" parent="1">
          <mxGeometry x="690" y="194" width="120" height="42" as="geometry" />
        </mxCell>
        <mxCell id="cxVYeyNe83v4ehQ38KOi-2" value="" style="shape=image;imageAspect=0;aspect=fixed;verticalLabelPosition=bottom;verticalAlign=top;image=data:image/png,iVBORw0KGgoAAAANSUhEUgAAAVYAAACTCAMAAADiI8ECAAAAtFBMVEX///+kIDWJiI2joqWrq62Lio+FhIiKio2hDyqkHzTNk5qeAB2gACPfu8Du2dyEhIfX19i1tbeamp319fX26+2dABiiAinHhY3PnKLy3+L38PGiEyzv7++Af4To6OjU1NXAdH2oKj6SkpW+vsCvQFDi4uPFxcacABCXAAB7e3+wsLLExMa/d3+enqCnp6rVpKvIi5HPmaDlx8vetryzUF+qMEOwSFa7Ym65X2uxTVvlxMi9a3Zwf6EWAAAOd0lEQVR4nO2dC3+aSBeHcRRGghGFaGoUSCAk1VTb9LLtNt//e73nzIXrQJS4m7Lv/H/dKjAMw8PMmXPOYNcwtLS0tLS0tLS0tLS0tLS0tLS0tLS0tLS0tLS0tN6mcNagE+vxI35a5J+nXRteXWikoj2p+BZtXj83naXheZrRpJR/+EK147vAUsi1rBOvM9vy04KHt7c5b1cwNCjWClXHhnfUBdId5ffgRedpiUqHYIcfQ2KiSFwrMCcmpW4ZKiGUmideKLUonkatlpsJyx2tdUBAu6A+MjJiaJ8FNXvGnsIlTKsV62aIZVEmdc1/CKwfW9T1oIsO+aWUWMkoqYmaJ2N1iZckQ9KCNSRmket8m7TUB+3azQFmFJsua1AcxZTMD6QVawRQLeLtkvmQusR0hyfexVFKTXjklJgh9FYax/DcVVittH4mnHTqtSwyN4wHqxlriI3JTd7BMq0WrtiujUuJS80ANgPosvDHhwu0YH1woWs/CEs382DLO/E2jlBk4UUIIdbsAC0yDEuNVTEYO2B1GVa3EWsIvcckruQKVE3awhWxhtzub2HYbdm3oB1rFFBrVNh+sExydq5zoBr7xoYS6sKD3pyGlTZVG85VSkaEMiNAD8lcNVeH0O3QWFr84IGb4mauiNV/iFDIUX5rw7pxTWte2pNa1T1vlmdRi5uWvUtfxxqGfuEDTgilKpBmAcGpoyboigRJERoonlMIQ9gNUxiWrL8OXWodjD1Y/qa7hnZFGyFog1RC3Eas+Ewru2YWDV53yI5XCHYs6wpztExpK9YoCLB0uA3Yo4ApK/MLgrJXNoORZblNsnDOqGNNYWZ2U9Z94IFhX2WjFbg29Sb0BBSeH9TehBV8kbrl2lG6ayjfQTOXFF2dCE35zHBbsFrsIYA141jBP5GdkFaxknlajx6k0oMCK1DlvRRMMJjtYUYTBlJDf51b6BPWRgRt9gR2OfHkMBSN9uFSjZROVQKWixbjjBQN7BNtxpruh/gU/P2QdXHAOmQ6gEWsYm33HJM61hmOfeFvoB2geR8dNfXXh+EhNsn+MMx18MDNOuyb3F2wP7Klw3yIHZRzRyfhGPPKMHzwNkiDg6Waskw5ZcWk1ltPxQokTZp5calFiySRa8MwHcn5rXDpZtdh48pZfwMsXfxAPVikzT0+XiwGGNV2j3DiOt3Bimmtt9J47+337L+KPNgXV7H6ARjqwq6UuEWO0AWtJ+WNQEcrR/aR5TYjAseZV/uw3XmEJOJes91vFFpu5WyZgItDaxkIgXUTRXjIjyLWrRBrGmHaRIEVTB5tEti/KtYNnFDiE5ZGPcTVRG1eJVZoCG9VK9asK4PZQqtsBmxuARek6h50kP8AfYMo4ia8MHB1qxmmqicgpizAOgq2qQJrtDXRTQjUQubbMtZwS6gqkhMCrEEr1tkWHIwtfnutt/Jqdnyyszz+TCxaH7knK1YPdS6YLUyrcrAFqxWosBo+NNpv0gYi8mr5dNiO1ZqpXcsRx/oEj8p0ubvSgjW0yF5cEJ2zvbhidBbbGqMT0oQVzEMtmhNYwyTBdvhPT2zoINbZU6IyAoZhtuRh/EARho8YVp7DxcSp4c+Q5GY2Y1mgoHqBhyfUg8dtx5ObY6VDfkwVIcPNYUUYzxwI5hEY2F1b8udoDT2PNGM1qedVLM3JU5bEypO3PIMrvvqtWLcWeBebrbvHSA3HfRLgcFBgpTzcMBVYKQ869qpb5wApGYXgCYRPMRojH844T2I9aMaqTAx2w7rZBh4a2u0TpvjwDmJ367+ONbAYVnSxEmZlvDrWmLIYjwismHAJBFaCmWxKVQk/iHlirBpAMutPyRAtiLJsB7VgbQkHdjv88Hc75kQg1mi327RgZW4iWDsoP3exDsanBWuSPKHdS+CEzRxNzowlZVRYiTuLopnHbWvIsixofgHrCA5EDahiDNfDoWWxlD214gcjdM2g2ayfJMA6S1PGimvGp8R0pjIPcspy3VLw2jJlCayeB/7gLMaljScvhpIjL27F2iBlb3UxvTKs+61kDgdCV40VOqoboTOEEwyZh+jCsy57FgU4hFzmHPHkB5/848BtCQeirUy1MLPV4mB1nrIapOytphVYATFrWCmB/TBFqFntLMpXuobUxY8QPB96HsvKsBJCuNkyWX6C3ajntgWvfpqy66d8yRKxblJk8U5YeWKFY52N9jsRDsioo6ELYg7Hg6IHxOpjwtk92wpsYFJMLDOzRebzHeE+1dN8fpbgVWKVKatNYVG8FWsobBJaSfEVYSmxkhEo5lh3MAmRAONbMAIeHmjECiMMJrU4gRtPhhD8WOb51rXzKQtaXLrRlsRgRUd4AmIhHO9XLoq/5gnwQMzDwImHZNsmTyBgpzHbChM8sQjF0SfDgaB5do+oVYiid+eyAEYFa+lGWzwBmHu4YpaYQKxJHIdtngDLhrL1Zbb4DGO23RMI+AmIhOUV8L5bsfLgdU9p4vNs9BFYIaCJMdltuuA1nPUVDGh+krDIooB1g8vUbZ6AxVZMKKG5J0DcNk8AvMQk4evLfFE8fsXBgnbtdgcisHq7nUeOwRozO2lR7zisBnpkEJ89nMmvyhSwPAN+K2AFB5y0TVmRZbo4LGkB67bNEyj5rTmfNqx4dd/lWGmC4cBxWDNLdiRWMWWdWZjeVGG1rFasBCcF3yIZVq4jsR4RDjCsm38F6/BcEWtB4GBFMzYECjeKb55FrUaAZSs3GmuTOk1ZGVb672B1+43VOAIr9mzAikZgI3LpZvb6hQJrjFh9lW1lV1diDSu2tYS1Wj53sDZyg1uyf9S2hqNWgacjvsHcNRodiBnv+DbNjuTyTDKEjz0x0dPGwvzMvA5aPYUdPJhY7d7E03gd2dVq18DIXLSLHx+S/LTYJIfaBUQ4gEcK1e4pa+RIdY3qBat1VqRYlbJUL5UUF9PN0rdsm9Lawjs7SvmHKVfiK3XQ6ksshWqzr5T/TVXlS+2Qp5miOapGZW0R1RZO5u9YKu6jAUGTFHkt65VTtF6V6oWmtPhOglYnnemdcS0tLS0tLS0tLS0tLS0tLS0tLS0tLS0tLS0tLS3U9W1RXy6eP1+ubt67Uf3X7WRd0Hg8nkyc9f311/duV8+1cgZ12WPn7ln32TfoamkruALZyeDbe7etx2rCCmAX1+/duP4qw2pL+5pjdj69d+t6K4nVvv/E9X3srCXXhbQD02+XSk350dK+r1OlKzFV13C5woO+rJ9XeCM2K1XclEv9yZJY13nPnN7KacyeiFeGnx8nKj1+YUevF8WdjjNZ2r8+VG/9U0MVH/DgzcdShSu++fi5XMW0XOpPVob1trDzciIswfiC7/gwVppfcfi6dtReL527i1KnrRfiD46hu1nwLVHhymHXt53ys5k65Vb9wVJiNS6W4q7v+PapWNm5y2Wxt6kLDZZFrIMMq6jiR+kF+95jNeREtuD9pQvWgW07v3IsXbAOxqVW9R/ri5i2JnzSyrDaJU0qWPle/CKx/JVxvW6oohWr7RQ7fP+xXggI42e2KbHa9yX9YPNNTuz+/g5ALZzcFx7/lDVel6u4Wx+DFWzvKm9U/7F+m5TuQGC1l8qIVhCThtiYfr53JFjnW7nQYKGqobG35pUa/w2sfPey1FvtyZWqjgxrbkkvZVRh2+VCp2HFXS9Zqf5jfRYQyrb1eKzGSnIVNXTGmsck/wGst2LKcniG8HSsmRlZ/1UqdDpW25Hmtf9YZV9zuDHtgNW4l1VcFQudjhUmOVGq91hlV7NFV+uC9bOoefK7WKgD1sFEBNZ9x3olO6vwrzphXZVRvQGrNK89x/rVltP4o3CoMgfrBKyGqGT9UizUCavwXnuM9ebq8lfmdC5lIjvDulLV0YD1b5Fy/FEsJK11WY1+q3w0zLz2EKtt3/E2TyZZutUeyFJZlJV1IKeAsAHrT16RvS4WglJ3svq8eFOq5bvkukTz2kOseaieD728b9ZzAo+FOhqwSiftsVioUMX4Vazji89i7hwsLvuJtabxIM921jNYRRN5GtZM69exXhvf5diB2bL/WO2x81Iwgu+H9Wqcm9feY7XvPpUmp05YX9qxHmMEYMq8FIfsyZdVD7GuHceZZLf8o1wqwzpxhD6+PmU1YM2qeDwKq/FJ1D6YfBHudI+wrn+uptPLjOvkuVRKOljj31OpwtEGrL+Ej1H2BCZTRRVtWI27bMl90Lveyv3W22ykOiXHX/bWU6IsmRQQIX2XcIBjnVaCg/5hzaLWwfpXsVSX4NUvBxrdsRrP2SDqKVYj8xMHTvHlhy5YRSezx+WVmQ5YjV9ZhNJTrMYP2V2Lqx2dsMrlMLHY/xasV73H+nUhG78svDvSBauYaexlqVAnrMbvrFU9xSojeVBh0bMD1ouJsAHXpULdsBrXy55jvZJpjsH676zU6VgzX00umbwNa26ceoq1MO9OssW5Ix2sfNeFrCRbOH0j1tUi59pLrIVZayx3SazLqX9TFO+eGdYb/P/l3Fz9vr6bZC68fBBvxGp8zr3XfmL9nd1ANY0NlMZFOeX1FPsOZC+dSf7q8eK3rPWtWAteVi+wDqpYCzewEIYxT7WUXqCqvtpWztcOimv8b8d6k1XdU6yr2qzV7Y3BtVP4HdKbseajqA9Y5VsSt4Wd2eut8hWqDljt8eK26HC9HWvmZfUA66UKa540sm2WzD4Nqw0meHF3XfYaTsNqq7Aa9+u+YL1biOTnS3FvHmtxB+n5o6PSRx6IfXos7lw4g/uX2k8HskIf/eoRA387IFohfzsgNis/tVktipf9k7WSyc/yUvWX3HnFF1CvpmrxDlk+enWjfFszK6RsRrlCv7xZa63Se+6FXjIvy/ly9n/D//9YHybLNb4XYC8//vk/g+qRbj78PXlcPN5/6O+Q+2Olf6atpaWlpaWlpaWlpaWlpaWlpaWlpaWlpaWlpfVu+h+zPJdMxu4XTwAAAABJRU5ErkJggg==;rounded=1;" vertex="1" parent="1">
          <mxGeometry x="394" y="75.61000000000001" width="112" height="48.14" as="geometry" />
        </mxCell>
        <mxCell id="cxVYeyNe83v4ehQ38KOi-6" value="" style="edgeStyle=orthogonalEdgeStyle;rounded=1;orthogonalLoop=1;jettySize=auto;html=1;" edge="1" parent="1" source="cxVYeyNe83v4ehQ38KOi-3" target="cxVYeyNe83v4ehQ38KOi-5">
          <mxGeometry relative="1" as="geometry" />
        </mxCell>
        <mxCell id="cxVYeyNe83v4ehQ38KOi-3" value="&lt;br&gt;&lt;br&gt;CHECK" style="rhombus;whiteSpace=wrap;html=1;verticalAlign=top;fillColor=#F58534;rounded=1;dashed=0;gradientColor=none;" vertex="1" parent="1">
          <mxGeometry x="870" y="300" width="80" height="80" as="geometry" />
        </mxCell>
        <mxCell id="cxVYeyNe83v4ehQ38KOi-8" value="" style="edgeStyle=orthogonalEdgeStyle;rounded=1;orthogonalLoop=1;jettySize=auto;html=1;" edge="1" parent="1" source="cxVYeyNe83v4ehQ38KOi-5" target="cxVYeyNe83v4ehQ38KOi-7">
          <mxGeometry relative="1" as="geometry" />
        </mxCell>
        <mxCell id="cxVYeyNe83v4ehQ38KOi-5" value="REMOVE&lt;br&gt;CLUSTER" style="whiteSpace=wrap;html=1;verticalAlign=top;fillColor=#F58534;rounded=1;dashed=0;gradientColor=none;" vertex="1" parent="1">
          <mxGeometry x="690" y="320" width="120" height="40" as="geometry" />
        </mxCell>
        <mxCell id="cxVYeyNe83v4ehQ38KOi-10" value="" style="edgeStyle=orthogonalEdgeStyle;rounded=1;orthogonalLoop=1;jettySize=auto;html=1;" edge="1" parent="1" source="cxVYeyNe83v4ehQ38KOi-7" target="cxVYeyNe83v4ehQ38KOi-9">
          <mxGeometry relative="1" as="geometry" />
        </mxCell>
        <mxCell id="cxVYeyNe83v4ehQ38KOi-7" value="&lt;br&gt;&lt;br&gt;CHECK" style="rhombus;whiteSpace=wrap;html=1;verticalAlign=top;fillColor=#F58534;rounded=1;dashed=0;gradientColor=none;" vertex="1" parent="1">
          <mxGeometry x="510" y="300" width="80" height="80" as="geometry" />
        </mxCell>
        <mxCell id="cxVYeyNe83v4ehQ38KOi-9" value="&lt;br&gt;END&lt;br&gt;PIPELINE" style="ellipse;whiteSpace=wrap;html=1;verticalAlign=top;fillColor=#F58534;rounded=1;dashed=0;gradientColor=none;" vertex="1" parent="1">
          <mxGeometry x="346.5" y="300" width="80" height="80" as="geometry" />
        </mxCell>
      </root>
    </mxGraphModel>
  </diagram>
</mxfile>
